<?xml version="1.0" standalone="no"?>
<!DOCTYPE svg PUBLIC "-//W3C//DTD SVG 20010904//EN"
 "http://www.w3.org/TR/2001/REC-SVG-20010904/DTD/svg10.dtd">
<svg version="1.0" xmlns="http://www.w3.org/2000/svg"
 width="795.000000pt" height="795.000000pt" viewBox="0 0 795.000000 795.000000"
 preserveAspectRatio="xMidYMid meet">
<metadata>
Created by potrace 1.11, written by Peter Selinger 2001-2013
</metadata>
<g transform="translate(0.000000,795.000000) scale(0.100000,-0.100000)"
fill="#000000" stroke="none">
<path d="M4078 6836 c-10 -8 -16 -22 -13 -34 2 -13 -1 -22 -8 -22 -7 0 -4 -6
5 -14 10 -7 16 -16 13 -19 -3 -4 -2 -5 1 -2 4 2 15 0 24 -5 24 -13 67 21 66
52 -2 38 -15 51 -34 36 -13 -11 -15 -11 -10 2 7 20 -20 23 -44 6z m36 -12 c5
-13 9 -14 21 -4 16 13 16 13 19 -22 3 -26 -12 -50 -25 -42 -5 3 -9 -1 -9 -8 0
-9 -3 -9 -10 2 -5 8 -10 11 -10 6 0 -5 -6 -3 -13 3 -15 12 -16 48 -4 69 11 17
24 15 31 -4z"/>
<path d="M4088 6823 c-2 -4 -4 -19 -4 -33 1 -21 6 -25 30 -25 26 0 30 4 31 28
1 19 -1 25 -8 18 -8 -8 -16 -6 -28 5 -9 8 -19 12 -21 7z m44 -28 c2 3 5 -1 5
-8 0 -7 -10 -13 -22 -13 -15 0 -21 6 -21 23 0 20 2 21 16 8 9 -8 19 -13 22
-10z"/>
<path d="M6954 6493 c0 -12 5 -23 11 -23 6 0 11 11 11 23 0 13 -5 24 -11 24
-6 0 -11 -11 -11 -24z"/>
<path d="M6945 6450 c-2 -4 -18 -6 -34 -5 -22 2 -28 -1 -24 -12 5 -12 7 -12
14 -1 7 10 9 10 9 -2 0 -13 1 -13 10 0 7 12 10 12 10 1 0 -7 6 -11 15 -8 8 4
17 2 20 -3 4 -6 0 -10 -7 -10 -9 0 -9 -3 2 -10 13 -9 13 -10 0 -10 -12 0 -13
-2 -1 -9 11 -7 11 -9 0 -13 -10 -3 -9 -6 2 -10 13 -5 15 1 14 33 -1 22 2 42 7
45 4 3 8 1 8 -4 0 -11 46 -9 57 2 4 5 3 6 -4 2 -6 -3 -15 -1 -18 5 -4 5 -13 8
-20 5 -7 -2 -16 -2 -19 2 -10 9 -35 11 -41 2z m30 -9 c-9 -8 -36 -10 -30 -2 2
4 11 8 20 8 8 0 13 -3 10 -6z"/>
<path d="M1800 6341 c13 -9 13 -11 -1 -11 -9 0 -19 -9 -22 -20 -3 -11 -2 -18
2 -15 4 2 8 -2 8 -10 0 -8 -5 -11 -10 -8 -6 4 -7 1 -2 -8 5 -8 6 -12 2 -9 -3
3 -6 10 -8 15 -1 6 -9 16 -18 23 -14 11 -14 11 2 6 9 -3 17 -2 17 3 0 5 -9 9
-19 10 -13 1 -19 -4 -18 -17 1 -10 5 -16 9 -14 4 3 8 -2 8 -10 0 -9 3 -16 8
-17 39 -5 60 -5 56 2 -2 4 0 10 6 14 5 3 10 -2 10 -12 0 -15 2 -15 9 -4 7 10
4 20 -8 30 -9 9 -17 25 -16 35 0 11 -7 21 -15 23 -13 4 -13 3 0 -6z m7 -28
c-4 -3 -2 -12 3 -18 7 -9 6 -16 -3 -23 -9 -8 -13 -4 -13 19 -1 16 3 29 9 29 6
0 7 -3 4 -7z"/>
<path d="M485 6250 c-3 -5 -3 -10 2 -10 4 0 1 -5 -7 -10 -12 -8 -12 -10 -1
-10 11 0 10 -4 -3 -19 -10 -11 -26 -18 -36 -16 -10 2 -23 -2 -29 -9 -8 -10 -2
-12 27 -11 44 2 55 -2 45 -18 -12 -19 -11 -46 2 -51 7 -2 11 6 10 25 -1 16 4
34 12 40 7 6 13 8 13 4 0 -4 6 -2 14 4 11 9 15 9 19 -1 4 -10 7 -10 18 1 8 8
9 11 2 7 -6 -3 -14 -2 -17 3 -4 5 -14 8 -24 6 -25 -4 -47 16 -30 26 10 7 10 9
-1 9 -10 0 -11 3 -2 14 8 9 8 16 2 20 -5 4 -12 2 -16 -4z m19 -82 c-4 -5 -11
-5 -18 1 -7 6 -17 7 -22 3 -4 -4 -2 1 5 11 10 13 17 15 27 6 8 -6 11 -15 8
-21z"/>
<path d="M1755 6240 c-4 -6 3 -10 14 -10 25 0 27 6 6 13 -8 4 -17 2 -20 -3z"/>
<path d="M3605 6176 c-38 -18 -88 -41 -110 -51 -22 -9 -73 -33 -112 -51 -40
-19 -75 -34 -77 -34 -5 0 -234 -106 -258 -120 -10 -6 -25 -10 -33 -10 -8 0
-15 -4 -15 -10 0 -5 -6 -10 -14 -10 -8 0 -61 -22 -118 -49 -107 -49 -130 -60
-233 -107 -208 -93 -277 -124 -330 -149 -33 -15 -93 -43 -133 -61 -41 -19 -78
-34 -83 -34 -5 0 -9 -4 -9 -8 0 -5 -6 -9 -12 -9 -7 0 -53 -19 -103 -42 -49
-24 -103 -49 -120 -56 -16 -8 -70 -32 -118 -54 -49 -23 -90 -41 -92 -41 -2 0
-41 -17 -87 -39 -75 -35 -334 -153 -463 -211 -27 -13 -77 -35 -110 -50 -33
-15 -82 -38 -110 -50 -27 -12 -84 -38 -125 -57 -41 -19 -113 -52 -160 -73
-108 -48 -185 -83 -285 -130 -44 -20 -91 -40 -104 -45 -12 -4 -19 -11 -15 -15
5 -4 74 -31 154 -59 80 -29 154 -56 165 -61 11 -4 61 -22 110 -40 88 -31 170
-60 210 -76 11 -4 23 -8 28 -9 4 -2 9 -4 12 -5 3 -1 8 -3 13 -5 4 -1 14 -4 22
-8 8 -3 47 -17 85 -30 39 -14 84 -31 100 -38 17 -7 32 -13 35 -14 18 -4 120
-40 145 -50 17 -7 77 -29 135 -49 128 -46 200 -71 350 -126 234 -85 241 -88
236 -114 -2 -9 -7 -40 -20 -116 -34 -214 -40 -237 -58 -232 -10 2 -18 9 -18
15 0 6 -3 8 -6 4 -3 -3 -30 7 -59 23 -29 16 -56 26 -59 23 -3 -4 -6 -1 -6 5 0
7 -7 12 -16 12 -9 0 -12 5 -8 12 4 6 3 8 -4 4 -6 -3 -71 24 -144 61 -73 37
-135 68 -138 69 -19 4 -59 25 -65 34 -3 5 -10 8 -14 6 -4 -3 -18 4 -29 15 -12
11 -22 17 -22 15 0 -3 -28 9 -62 26 -35 18 -70 33 -78 35 -8 1 -16 7 -18 13
-2 5 -8 8 -13 4 -5 -3 -9 0 -9 5 0 6 -3 10 -7 9 -12 -2 -63 24 -59 31 2 3 -7
7 -20 7 -13 1 -37 10 -52 20 -15 10 -30 17 -34 16 -5 -1 -8 3 -8 8 0 6 -6 10
-13 10 -14 0 -119 50 -127 60 -3 4 -17 10 -32 14 -16 3 -28 11 -28 16 0 6 -6
10 -13 10 -18 0 -67 24 -67 33 0 4 -9 7 -20 7 -11 0 -20 5 -20 12 0 6 -3 9 -6
5 -4 -3 -45 14 -93 38 l-86 44 -23 -22 c-22 -20 -122 -170 -122 -182 0 -3 -10
-22 -23 -43 -32 -51 -95 -194 -117 -261 -29 -95 -31 -108 -15 -124 8 -8 11
-18 7 -22 -4 -4 -2 -6 3 -5 23 5 44 -1 59 -15 8 -9 18 -16 21 -15 30 2 37 -2
31 -16 -3 -9 -2 -12 4 -9 15 9 90 -26 83 -38 -4 -6 0 -8 10 -4 9 3 19 2 22 -4
4 -5 11 -7 16 -4 5 4 9 1 9 -4 0 -6 7 -11 15 -11 8 0 15 -4 15 -10 0 -5 3 -9
8 -9 20 3 32 -2 26 -13 -5 -7 -3 -8 5 -4 7 5 21 0 33 -11 12 -10 18 -13 15 -6
-5 8 -1 8 18 0 14 -7 25 -15 25 -19 0 -5 7 -8 15 -8 8 0 15 -5 15 -12 0 -6 3
-9 6 -5 4 3 21 -1 38 -10 17 -10 34 -16 39 -15 4 1 7 -3 7 -9 0 -5 5 -7 10 -4
6 3 10 2 10 -3 0 -6 11 -13 25 -16 16 -4 23 -11 19 -18 -4 -7 -3 -8 5 -4 6 4
23 1 36 -8 13 -9 31 -16 40 -16 9 0 14 -4 11 -8 -2 -4 5 -9 17 -9 12 -1 23 -7
25 -13 2 -5 10 -10 18 -10 9 0 12 -5 8 -12 -4 -7 -3 -8 4 -4 6 4 23 -1 37 -10
14 -9 25 -13 25 -10 0 4 9 2 20 -4 11 -6 18 -15 15 -20 -3 -4 4 -6 15 -3 11 3
20 1 20 -4 0 -5 16 -15 35 -22 19 -7 35 -17 35 -22 0 -6 4 -8 9 -5 12 8 42 -4
37 -13 -3 -4 5 -8 17 -8 12 -1 23 -7 25 -13 2 -5 12 -10 23 -10 10 0 19 -4 19
-10 0 -5 6 -9 13 -7 6 1 11 -4 9 -12 -2 -9 3 -11 13 -7 15 5 116 -41 123 -57
2 -4 8 -5 13 -1 5 3 9 0 9 -6 0 -6 4 -8 10 -5 5 3 10 1 10 -5 0 -6 4 -9 9 -6
5 3 11 -1 15 -9 3 -8 12 -12 21 -9 8 3 15 1 15 -5 0 -6 7 -8 17 -4 9 4 14 2
10 -3 -3 -5 6 -14 19 -21 18 -8 23 -8 18 0 -3 7 1 4 9 -5 8 -10 17 -15 20 -11
4 3 7 1 7 -5 0 -7 3 -11 8 -11 19 3 33 -2 27 -11 -3 -6 1 -7 9 -4 9 3 16 1 16
-6 0 -6 5 -8 10 -5 5 3 10 1 10 -5 0 -6 3 -9 8 -7 10 7 73 -29 65 -37 -4 -4 0
-4 9 -1 8 3 23 -2 33 -12 10 -10 20 -17 22 -16 8 4 43 -11 43 -19 0 -5 4 -7 9
-3 5 3 12 1 16 -5 3 -5 15 -10 27 -10 12 0 22 -8 25 -21 4 -13 8 -17 13 -9 5
8 12 7 23 -5 9 -9 21 -13 27 -10 5 3 10 1 10 -4 0 -6 8 -11 18 -11 9 0 28 -9
41 -19 20 -15 22 -21 12 -39 -7 -12 -16 -22 -21 -22 -6 0 -10 -6 -10 -14 0 -8
-4 -16 -8 -18 -4 -1 -32 -32 -61 -67 -29 -35 -58 -70 -64 -76 -7 -7 -25 -30
-42 -51 -16 -21 -51 -64 -77 -96 -27 -31 -48 -59 -48 -61 0 -8 150 -127 159
-127 6 0 16 8 23 19 7 10 33 42 58 71 25 29 51 60 58 69 13 17 12 2 -10 -84
-6 -22 -12 -53 -15 -70 -3 -16 -9 -32 -13 -35 -26 -16 31 -39 163 -65 9 -2 21
-6 26 -10 9 -5 18 12 25 52 2 10 11 45 19 78 15 54 20 80 32 140 3 11 11 47
20 80 8 33 17 72 20 87 3 15 10 40 16 55 6 15 10 30 9 33 -4 12 19 9 33 -4 8
-8 17 -12 21 -9 3 3 14 -1 24 -10 10 -10 22 -14 25 -10 4 3 7 1 7 -5 0 -7 6
-12 14 -12 22 0 66 -26 58 -34 -4 -4 -2 -6 3 -5 16 5 85 -22 85 -32 0 -6 4 -8
9 -4 5 3 15 0 23 -7 7 -7 20 -14 28 -16 8 -2 17 -8 18 -13 2 -5 10 -9 17 -9
21 0 65 -26 58 -34 -4 -4 1 -4 11 0 13 5 17 4 12 -4 -5 -8 -2 -10 8 -6 9 3 16
1 16 -5 0 -6 3 -10 8 -9 15 4 52 -14 47 -23 -3 -5 2 -6 11 -2 13 5 15 3 9 -7
-5 -7 -4 -11 1 -7 11 6 87 -27 79 -35 -3 -2 2 -5 10 -6 8 -1 22 -3 30 -4 8 -1
15 -5 15 -9 0 -4 16 -13 35 -20 19 -7 35 -17 35 -21 0 -4 6 -7 13 -5 6 1 11
-3 10 -9 -1 -7 6 -10 16 -7 10 2 24 -2 32 -9 14 -15 21 -18 40 -18 5 0 7 -4 4
-10 -3 -5 0 -7 9 -4 9 3 26 -5 41 -20 14 -14 25 -20 25 -15 0 6 6 9 13 6 6 -2
11 -9 10 -15 -2 -6 3 -9 11 -6 8 3 17 1 21 -5 3 -6 15 -11 26 -11 10 0 19 -4
19 -10 0 -5 7 -10 15 -10 9 0 18 -7 22 -16 5 -13 7 -13 14 -2 5 8 9 9 9 2 0
-7 11 -15 25 -18 17 -4 23 -11 19 -19 -4 -7 -4 -9 0 -5 9 7 68 -11 77 -24 3
-5 16 -11 29 -13 13 -2 27 -10 32 -17 4 -7 8 -8 8 -3 0 6 7 1 16 -10 8 -11 17
-18 20 -16 8 6 68 -22 82 -39 11 -13 12 -13 7 0 -6 13 -5 13 7 0 7 -8 20 -15
28 -15 8 0 14 -4 13 -10 -1 -5 11 -11 25 -12 15 0 28 -6 30 -12 2 -6 9 -11 16
-11 18 0 66 -24 66 -32 0 -5 9 -8 19 -8 11 0 21 -5 23 -11 2 -5 10 -11 18 -13
31 -5 60 -18 60 -25 0 -5 14 -11 30 -14 20 -4 30 -13 30 -24 0 -14 2 -15 9 -5
6 11 12 10 26 -5 10 -10 20 -17 22 -15 5 5 117 -50 124 -61 3 -5 9 -8 13 -8
20 3 26 0 21 -9 -3 -6 1 -7 9 -4 9 3 16 1 16 -6 0 -6 4 -8 10 -5 6 3 10 1 10
-5 0 -6 4 -9 9 -5 5 3 15 0 23 -7 7 -7 20 -14 28 -16 8 -2 17 -7 20 -10 3 -4
12 -9 20 -11 8 -2 22 -6 31 -8 27 -8 94 98 203 322 61 124 116 261 116 289 0
12 -514 276 -537 276 -6 0 -13 4 -15 8 -1 5 -49 30 -105 57 -56 26 -99 53 -96
58 3 6 1 7 -4 4 -11 -7 -128 41 -121 49 3 2 51 6 109 8 154 8 298 16 349 22
25 2 70 7 100 9 30 3 69 7 85 9 17 3 57 8 90 11 33 4 67 8 75 10 8 2 38 7 65
11 52 6 72 10 115 19 14 3 36 8 50 11 14 3 36 7 50 10 179 37 392 121 462 182
54 47 57 52 52 75 -2 12 -7 42 -10 67 -3 25 -7 59 -10 75 -3 17 -7 41 -9 55
-2 14 -6 45 -10 70 -3 25 -8 56 -10 70 -2 14 -6 45 -10 70 -33 222 -45 308
-49 344 -3 21 -8 57 -12 80 -15 90 -20 83 106 139 63 27 138 60 165 73 28 12
113 50 190 84 77 33 154 67 171 75 119 55 215 97 224 99 3 1 31 14 64 29 32
15 65 27 72 27 8 0 14 5 14 10 0 6 5 10 12 10 6 0 30 8 52 19 119 54 157 71
161 71 2 0 36 15 77 34 40 18 102 45 138 61 36 15 72 31 80 36 8 5 22 12 30
15 76 30 139 59 140 65 0 3 -33 20 -72 38 -40 18 -100 45 -133 61 -33 15 -90
42 -127 59 -74 34 -161 74 -278 128 -114 53 -164 76 -170 78 -3 1 -34 15 -70
32 -103 48 -201 93 -260 120 -59 27 -139 64 -265 123 -76 36 -122 57 -260 120
-33 15 -89 41 -125 58 -36 16 -90 41 -120 55 -30 14 -89 40 -130 60 -41 19
-127 58 -190 87 -63 29 -151 69 -195 90 -44 20 -98 45 -120 55 -22 10 -91 42
-153 72 -62 29 -114 53 -116 53 -2 0 -50 22 -107 49 -57 27 -153 71 -214 99
-60 28 -157 72 -215 100 -58 27 -115 52 -125 55 -12 3 -50 -8 -90 -27z"/>
<path d="M66 4361 c-18 -19 -46 -24 -46 -7 0 6 -4 4 -10 -4 -9 -14 4 -40 18
-38 20 2 25 -3 12 -12 -12 -8 -12 -10 -1 -10 10 0 11 -3 2 -14 -9 -10 -8 -15
3 -19 11 -4 13 -1 9 11 -3 9 -3 14 2 10 14 -13 45 11 39 30 -3 9 1 6 9 -7 12
-19 15 -21 20 -7 4 10 -1 19 -12 26 -12 6 -17 17 -14 29 7 26 -11 34 -31 12z
m20 -13 c-1 -13 -5 -29 -9 -35 -5 -8 -3 -13 5 -14 10 0 10 -2 1 -6 -16 -6 -23
-5 -24 5 -1 14 -21 32 -29 27 -5 -3 -11 -1 -15 4 -3 6 3 8 14 6 11 -2 27 5 37
16 21 24 21 24 20 -3z"/>
<path d="M61 4336 c-8 -10 -9 -16 -1 -21 5 -3 10 -5 11 -3 4 18 7 38 4 38 -1
0 -8 -6 -14 -14z"/>
<path d="M7857 4143 c-2 -5 -3 -25 -2 -45 2 -26 -1 -35 -9 -31 -18 12 -36 12
-36 1 0 -6 -6 -5 -15 2 -10 9 -15 9 -15 1 0 -6 6 -11 13 -12 6 -1 23 -2 37 -2
22 -2 25 -6 24 -38 -1 -24 4 -36 13 -36 7 0 13 7 13 14 0 8 -4 11 -10 8 -12
-7 -14 8 -2 19 4 4 7 13 7 19 0 7 14 12 33 12 17 0 32 5 32 10 0 13 -41 14
-57 2 -9 -6 -11 2 -9 32 3 38 -7 62 -17 44z"/>
<path d="M7563 2456 c1 -6 -4 -10 -11 -8 -8 1 -11 -2 -8 -7 4 -5 0 -12 -6 -14
-10 -4 -9 -6 1 -6 10 -1 11 -4 2 -14 -8 -10 -5 -18 12 -33 24 -21 41 -24 54
-10 4 5 3 6 -3 3 -7 -4 -14 0 -17 8 -4 10 -1 12 11 8 9 -4 20 -11 24 -17 7
-10 10 -1 7 20 0 4 5 11 13 15 9 6 10 9 1 9 -7 0 -10 7 -7 15 4 8 1 15 -6 15
-6 0 -8 5 -4 12 4 7 3 8 -4 4 -7 -4 -12 -3 -12 1 0 5 -11 9 -24 9 -14 0 -24
-5 -23 -10z m62 -49 c1 -17 -2 -24 -9 -19 -6 3 -19 8 -30 9 -13 2 -17 -1 -12
-12 5 -13 2 -14 -15 -5 -16 9 -18 14 -8 26 6 8 8 14 4 14 -5 0 0 9 10 20 16
18 21 19 39 7 11 -8 21 -26 21 -40z"/>
<path d="M7570 2435 c-7 -8 -9 -15 -5 -15 4 0 1 -8 -6 -17 -11 -15 -10 -14 9
1 12 11 22 15 22 9 0 -5 6 -10 14 -10 18 0 14 27 -6 38 -11 6 -20 4 -28 -6z
m40 -10 c0 -2 -9 -3 -19 -2 -11 0 -18 5 -15 9 4 6 34 0 34 -7z"/>
<path d="M2580 2436 c0 -2 7 -7 16 -10 8 -3 12 -2 9 4 -6 10 -25 14 -25 6z"/>
<path d="M6245 2080 c-11 -4 -21 -12 -21 -19 -1 -6 -2 -12 -4 -13 -1 -2 -3
-11 -5 -20 -6 -34 70 -74 82 -43 3 8 10 12 17 8 6 -3 8 -3 4 2 -4 4 -2 15 5
23 9 13 9 14 0 8 -7 -4 -13 -3 -13 3 0 5 6 12 13 14 9 4 9 6 -1 6 -7 1 -10 6
-6 13 4 6 3 8 -4 4 -5 -3 -12 -1 -14 6 -5 14 -27 18 -53 8z m35 -10 c0 11 4 9
12 -5 16 -28 17 -49 1 -71 -10 -13 -13 -14 -13 -3 0 12 -2 12 -10 -1 -7 -11
-10 -11 -10 -2 0 7 -4 11 -9 7 -10 -6 -24 11 -27 33 -2 7 4 16 13 19 12 5 12
8 1 15 -10 7 -9 8 5 4 10 -3 17 0 17 7 0 8 4 6 10 -3 9 -13 10 -13 10 0z"/>
<path d="M6249 2046 c-25 -19 -17 -41 16 -41 24 0 29 4 29 24 0 27 -22 35 -45
17z m37 -16 c0 -10 -9 -16 -22 -16 -18 0 -21 4 -14 16 5 9 15 17 22 17 8 0 14
-8 14 -17z"/>
<path d="M303 2024 c4 -4 2 -13 -4 -21 -9 -9 -8 -17 0 -27 8 -10 9 -16 1 -21
-5 -3 -10 -3 -10 2 0 4 -5 1 -10 -7 -6 -9 -10 -10 -10 -3 0 6 -9 11 -19 10
-11 0 -18 -4 -15 -8 2 -4 -2 -10 -8 -12 -8 -3 -6 -6 5 -6 9 -1 17 4 17 10 0 6
5 7 13 2 6 -4 21 -6 32 -5 17 2 17 1 5 -7 -8 -6 -10 -11 -4 -11 7 0 10 -13 8
-32 -3 -23 -1 -29 5 -18 6 8 7 18 5 22 -3 4 0 8 7 8 8 0 8 4 -1 15 -11 14 -7
19 13 16 4 0 7 4 7 9 0 6 5 10 11 10 5 0 8 -4 5 -8 -2 -4 4 -9 15 -9 25 -2 20
19 -6 23 -10 2 -27 -2 -37 -7 -12 -6 -18 -6 -18 1 0 5 6 10 13 10 7 0 8 3 2 8
-12 9 -13 35 -2 43 5 3 1 9 -9 13 -10 4 -15 4 -11 0z"/>
<path d="M1000 1480 c-14 -11 -21 -20 -16 -20 5 0 3 -6 -3 -14 -8 -10 -9 -16
-1 -21 6 -3 7 -11 4 -17 -4 -7 -2 -8 5 -4 6 4 14 0 17 -9 6 -14 8 -14 19 2 8
10 17 15 21 10 4 -4 2 -7 -4 -7 -7 0 -12 -5 -12 -11 0 -6 5 -7 13 -2 6 4 17 8
22 8 6 1 9 6 8 13 -2 7 2 12 7 12 15 0 4 47 -14 66 -10 10 -16 11 -16 3 0 -8
-4 -8 -13 -1 -9 8 -19 5 -37 -8z m50 -5 c0 4 6 2 14 -4 12 -10 14 -29 6 -51
-1 -3 -2 -9 -1 -14 1 -5 -5 -4 -13 4 -12 9 -19 10 -29 1 -11 -8 -18 -6 -31 8
-12 13 -14 21 -6 26 5 3 7 11 4 17 -4 6 -2 8 3 5 6 -4 14 0 17 9 5 13 9 14 21
4 8 -7 15 -9 15 -5z"/>
<path d="M1008 1455 c-15 -19 -15 -25 -4 -34 10 -9 16 -9 21 -1 4 6 14 9 23 8
11 -2 16 4 16 17 0 12 -6 19 -14 17 -7 -2 -16 1 -19 6 -3 6 -14 0 -23 -13z
m49 -11 c0 -7 -6 -10 -13 -7 -6 2 -15 -1 -19 -6 -3 -6 -11 -9 -16 -5 -15 9 6
30 29 30 10 0 19 -6 19 -12z"/>
<path d="M2589 1224 c-11 -14 -10 -18 6 -30 32 -24 52 -11 40 26 -8 24 -28 26
-46 4z"/>
<path d="M3885 1231 c-3 -6 -4 -15 0 -21 3 -5 -5 -9 -17 -8 -38 1 -48 -1 -48
-13 0 -8 6 -7 17 2 15 12 16 12 10 -3 -3 -10 -3 -17 1 -17 19 3 25 -2 13 -10
-12 -7 -12 -13 -3 -24 7 -7 8 -18 4 -22 -4 -5 0 -4 8 0 8 5 21 17 29 28 11 15
15 16 22 6 7 -11 9 -11 9 -1 0 7 5 10 10 7 21 -13 8 8 -22 36 -18 17 -28 29
-23 27 13 -4 20 15 7 20 -6 2 -13 -2 -17 -7z m-1 -41 c10 7 18 4 32 -12 10
-12 14 -19 8 -15 -6 4 -19 -2 -29 -13 -19 -21 -43 -17 -25 5 8 9 8 15 0 20 -5
3 -10 12 -9 18 0 8 2 8 6 -1 3 -9 9 -10 17 -2z"/>
<path d="M3889 1185 c-1 -3 -2 -8 -3 -12 -1 -5 -5 -15 -10 -23 -6 -9 -1 -8 12
4 12 10 19 23 16 27 -6 10 -13 12 -15 4z"/>
</g>
</svg>
